<mxfile host="app.diagrams.net" agent="Mozilla/5.0 (Windows NT 10.0; Win64; x64) AppleWebKit/537.36 (KHTML, like Gecko) Chrome/130.0.0.0 Safari/537.36" version="24.8.3">
  <diagram name="Página-1" id="s-4qdRuB9wYPHsuRtXVm">
    <mxGraphModel dx="989" dy="549" grid="1" gridSize="10" guides="1" tooltips="1" connect="1" arrows="1" fold="1" page="1" pageScale="1" pageWidth="827" pageHeight="1169" math="0" shadow="0">
      <root>
        <mxCell id="0" />
        <mxCell id="1" parent="0" />
        <mxCell id="pGpuBXrGM3ruBwRcqTSD-6" style="edgeStyle=orthogonalEdgeStyle;rounded=0;orthogonalLoop=1;jettySize=auto;html=1;curved=0;" parent="1" source="pGpuBXrGM3ruBwRcqTSD-1" target="pGpuBXrGM3ruBwRcqTSD-3" edge="1">
          <mxGeometry relative="1" as="geometry">
            <Array as="points">
              <mxPoint x="140" y="130" />
              <mxPoint x="140" y="130" />
            </Array>
          </mxGeometry>
        </mxCell>
        <mxCell id="pGpuBXrGM3ruBwRcqTSD-1" value="" style="shape=umlLifeline;perimeter=lifelinePerimeter;whiteSpace=wrap;html=1;container=1;dropTarget=0;collapsible=0;recursiveResize=0;outlineConnect=0;portConstraint=eastwest;newEdgeStyle={&quot;curved&quot;:0,&quot;rounded&quot;:0};participant=umlActor;" parent="1" vertex="1">
          <mxGeometry x="40" y="40" width="20" height="510" as="geometry" />
        </mxCell>
        <mxCell id="pGpuBXrGM3ruBwRcqTSD-8" value="" style="html=1;points=[[0,0,0,0,5],[0,1,0,0,-5],[1,0,0,0,5],[1,1,0,0,-5]];perimeter=orthogonalPerimeter;outlineConnect=0;targetShapes=umlLifeline;portConstraint=eastwest;newEdgeStyle={&quot;curved&quot;:0,&quot;rounded&quot;:0};" parent="pGpuBXrGM3ruBwRcqTSD-1" vertex="1">
          <mxGeometry x="5" y="60" width="10" height="80" as="geometry" />
        </mxCell>
        <mxCell id="pGpuBXrGM3ruBwRcqTSD-38" value="" style="html=1;points=[[0,0,0,0,5],[0,1,0,0,-5],[1,0,0,0,5],[1,1,0,0,-5]];perimeter=orthogonalPerimeter;outlineConnect=0;targetShapes=umlLifeline;portConstraint=eastwest;newEdgeStyle={&quot;curved&quot;:0,&quot;rounded&quot;:0};" parent="pGpuBXrGM3ruBwRcqTSD-1" vertex="1">
          <mxGeometry x="5" y="430" width="10" height="80" as="geometry" />
        </mxCell>
        <mxCell id="pGpuBXrGM3ruBwRcqTSD-2" value="&lt;font style=&quot;font-size: 8px;&quot;&gt;´Professor&lt;/font&gt;" style="text;html=1;align=center;verticalAlign=middle;resizable=0;points=[];autosize=1;strokeColor=none;fillColor=none;" parent="1" vertex="1">
          <mxGeometry x="20" y="10" width="60" height="30" as="geometry" />
        </mxCell>
        <mxCell id="pGpuBXrGM3ruBwRcqTSD-10" style="edgeStyle=orthogonalEdgeStyle;rounded=0;orthogonalLoop=1;jettySize=auto;html=1;curved=0;" parent="1" edge="1">
          <mxGeometry relative="1" as="geometry">
            <mxPoint x="224.81034482758605" y="150" as="sourcePoint" />
            <mxPoint x="379.5" y="150" as="targetPoint" />
          </mxGeometry>
        </mxCell>
        <mxCell id="pGpuBXrGM3ruBwRcqTSD-3" value="Tela principal" style="shape=umlLifeline;perimeter=lifelinePerimeter;whiteSpace=wrap;html=1;container=1;dropTarget=0;collapsible=0;recursiveResize=0;outlineConnect=0;portConstraint=eastwest;newEdgeStyle={&quot;curved&quot;:0,&quot;rounded&quot;:0};participant=umlBoundary;" parent="1" vertex="1">
          <mxGeometry x="200" y="40" width="50" height="510" as="geometry" />
        </mxCell>
        <mxCell id="pGpuBXrGM3ruBwRcqTSD-9" value="" style="html=1;points=[[0,0,0,0,5],[0,1,0,0,-5],[1,0,0,0,5],[1,1,0,0,-5]];perimeter=orthogonalPerimeter;outlineConnect=0;targetShapes=umlLifeline;portConstraint=eastwest;newEdgeStyle={&quot;curved&quot;:0,&quot;rounded&quot;:0};" parent="pGpuBXrGM3ruBwRcqTSD-3" vertex="1">
          <mxGeometry x="20" y="70" width="10" height="80" as="geometry" />
        </mxCell>
        <mxCell id="pGpuBXrGM3ruBwRcqTSD-37" value="" style="html=1;points=[[0,0,0,0,5],[0,1,0,0,-5],[1,0,0,0,5],[1,1,0,0,-5]];perimeter=orthogonalPerimeter;outlineConnect=0;targetShapes=umlLifeline;portConstraint=eastwest;newEdgeStyle={&quot;curved&quot;:0,&quot;rounded&quot;:0};" parent="pGpuBXrGM3ruBwRcqTSD-3" vertex="1">
          <mxGeometry x="20" y="418" width="10" height="80" as="geometry" />
        </mxCell>
        <mxCell id="pGpuBXrGM3ruBwRcqTSD-13" style="edgeStyle=orthogonalEdgeStyle;rounded=0;orthogonalLoop=1;jettySize=auto;html=1;curved=0;" parent="1" edge="1">
          <mxGeometry relative="1" as="geometry">
            <mxPoint x="379.81034482758605" y="170" as="sourcePoint" />
            <mxPoint x="534.5" y="170" as="targetPoint" />
          </mxGeometry>
        </mxCell>
        <mxCell id="pGpuBXrGM3ruBwRcqTSD-16" style="edgeStyle=orthogonalEdgeStyle;rounded=0;orthogonalLoop=1;jettySize=auto;html=1;curved=0;" parent="1" edge="1">
          <mxGeometry relative="1" as="geometry">
            <mxPoint x="530.0003448275861" y="269.31" as="sourcePoint" />
            <mxPoint x="684.69" y="269.31" as="targetPoint" />
          </mxGeometry>
        </mxCell>
        <mxCell id="pGpuBXrGM3ruBwRcqTSD-4" value="Controle de aula" style="shape=umlLifeline;perimeter=lifelinePerimeter;whiteSpace=wrap;html=1;container=1;dropTarget=0;collapsible=0;recursiveResize=0;outlineConnect=0;portConstraint=eastwest;newEdgeStyle={&quot;curved&quot;:0,&quot;rounded&quot;:0};participant=umlControl;" parent="1" vertex="1">
          <mxGeometry x="360" y="40" width="40" height="510" as="geometry" />
        </mxCell>
        <mxCell id="pGpuBXrGM3ruBwRcqTSD-12" value="" style="html=1;points=[[0,0,0,0,5],[0,1,0,0,-5],[1,0,0,0,5],[1,1,0,0,-5]];perimeter=orthogonalPerimeter;outlineConnect=0;targetShapes=umlLifeline;portConstraint=eastwest;newEdgeStyle={&quot;curved&quot;:0,&quot;rounded&quot;:0};" parent="pGpuBXrGM3ruBwRcqTSD-4" vertex="1">
          <mxGeometry x="15" y="80" width="10" height="80" as="geometry" />
        </mxCell>
        <mxCell id="pGpuBXrGM3ruBwRcqTSD-36" value="" style="html=1;points=[[0,0,0,0,5],[0,1,0,0,-5],[1,0,0,0,5],[1,1,0,0,-5]];perimeter=orthogonalPerimeter;outlineConnect=0;targetShapes=umlLifeline;portConstraint=eastwest;newEdgeStyle={&quot;curved&quot;:0,&quot;rounded&quot;:0};" parent="pGpuBXrGM3ruBwRcqTSD-4" vertex="1">
          <mxGeometry x="15" y="410" width="10" height="80" as="geometry" />
        </mxCell>
        <mxCell id="pGpuBXrGM3ruBwRcqTSD-24" style="edgeStyle=orthogonalEdgeStyle;rounded=0;orthogonalLoop=1;jettySize=auto;html=1;curved=0;" parent="1" edge="1">
          <mxGeometry relative="1" as="geometry">
            <mxPoint x="687.6503448275861" y="280" as="sourcePoint" />
            <mxPoint x="832.34" y="280" as="targetPoint" />
          </mxGeometry>
        </mxCell>
        <mxCell id="pGpuBXrGM3ruBwRcqTSD-28" style="edgeStyle=orthogonalEdgeStyle;rounded=0;orthogonalLoop=1;jettySize=auto;html=1;curved=0;dashed=1;" parent="1" edge="1">
          <mxGeometry relative="1" as="geometry">
            <mxPoint x="684.69" y="370" as="sourcePoint" />
            <mxPoint x="530.0003448275861" y="370" as="targetPoint" />
          </mxGeometry>
        </mxCell>
        <mxCell id="pGpuBXrGM3ruBwRcqTSD-5" value="Tela de Criação de Aula" style="shape=umlLifeline;perimeter=lifelinePerimeter;whiteSpace=wrap;html=1;container=1;dropTarget=0;collapsible=0;recursiveResize=0;outlineConnect=0;portConstraint=eastwest;newEdgeStyle={&quot;curved&quot;:0,&quot;rounded&quot;:0};participant=umlBoundary;" parent="1" vertex="1">
          <mxGeometry x="510" y="40" width="50" height="510" as="geometry" />
        </mxCell>
        <mxCell id="pGpuBXrGM3ruBwRcqTSD-20" value="" style="html=1;points=[[0,0,0,0,5],[0,1,0,0,-5],[1,0,0,0,5],[1,1,0,0,-5]];perimeter=orthogonalPerimeter;outlineConnect=0;targetShapes=umlLifeline;portConstraint=eastwest;newEdgeStyle={&quot;curved&quot;:0,&quot;rounded&quot;:0};" parent="pGpuBXrGM3ruBwRcqTSD-5" vertex="1">
          <mxGeometry x="20" y="88" width="10" height="80" as="geometry" />
        </mxCell>
        <mxCell id="pGpuBXrGM3ruBwRcqTSD-15" value="" style="html=1;points=[[0,0,0,0,5],[0,1,0,0,-5],[1,0,0,0,5],[1,1,0,0,-5]];perimeter=orthogonalPerimeter;outlineConnect=0;targetShapes=umlLifeline;portConstraint=eastwest;newEdgeStyle={&quot;curved&quot;:0,&quot;rounded&quot;:0};" parent="pGpuBXrGM3ruBwRcqTSD-5" vertex="1">
          <mxGeometry x="20" y="180" width="10" height="80" as="geometry" />
        </mxCell>
        <mxCell id="fX3zAuhtyyEibnqR22WL-7" value="" style="html=1;points=[[0,0,0,0,5],[0,1,0,0,-5],[1,0,0,0,5],[1,1,0,0,-5]];perimeter=orthogonalPerimeter;outlineConnect=0;targetShapes=umlLifeline;portConstraint=eastwest;newEdgeStyle={&quot;curved&quot;:0,&quot;rounded&quot;:0};" vertex="1" parent="pGpuBXrGM3ruBwRcqTSD-5">
          <mxGeometry x="20" y="400" width="10" height="80" as="geometry" />
        </mxCell>
        <mxCell id="pGpuBXrGM3ruBwRcqTSD-7" value="&lt;font style=&quot;font-size: 8px;&quot;&gt;acessarTelaCriacaoAula()&lt;/font&gt;" style="text;html=1;align=center;verticalAlign=middle;resizable=0;points=[];autosize=1;strokeColor=none;fillColor=none;" parent="1" vertex="1">
          <mxGeometry x="60" y="110" width="120" height="30" as="geometry" />
        </mxCell>
        <mxCell id="pGpuBXrGM3ruBwRcqTSD-11" value="&lt;font style=&quot;font-size: 8px;&quot;&gt;abrirTelaCriacaoAula()&lt;/font&gt;" style="text;html=1;align=center;verticalAlign=middle;resizable=0;points=[];autosize=1;strokeColor=none;fillColor=none;" parent="1" vertex="1">
          <mxGeometry x="230" y="128" width="100" height="30" as="geometry" />
        </mxCell>
        <mxCell id="pGpuBXrGM3ruBwRcqTSD-14" value="&lt;font style=&quot;font-size: 8px;&quot;&gt;exibirTelaCriacaoAula()&lt;/font&gt;" style="text;html=1;align=center;verticalAlign=middle;resizable=0;points=[];autosize=1;strokeColor=none;fillColor=none;" parent="1" vertex="1">
          <mxGeometry x="390" y="148" width="110" height="30" as="geometry" />
        </mxCell>
        <mxCell id="pGpuBXrGM3ruBwRcqTSD-17" value="&lt;font style=&quot;font-size: 8px;&quot;&gt;criarAula()&lt;/font&gt;" style="text;html=1;align=center;verticalAlign=middle;resizable=0;points=[];autosize=1;strokeColor=none;fillColor=none;" parent="1" vertex="1">
          <mxGeometry x="550" y="250" width="60" height="30" as="geometry" />
        </mxCell>
        <mxCell id="pGpuBXrGM3ruBwRcqTSD-18" value="Aulas" style="shape=umlLifeline;perimeter=lifelinePerimeter;whiteSpace=wrap;html=1;container=1;dropTarget=0;collapsible=0;recursiveResize=0;outlineConnect=0;portConstraint=eastwest;newEdgeStyle={&quot;curved&quot;:0,&quot;rounded&quot;:0};participant=umlEntity;" parent="1" vertex="1">
          <mxGeometry x="827" y="40" width="40" height="510" as="geometry" />
        </mxCell>
        <mxCell id="pGpuBXrGM3ruBwRcqTSD-27" value="" style="html=1;points=[[0,0,0,0,5],[0,1,0,0,-5],[1,0,0,0,5],[1,1,0,0,-5]];perimeter=orthogonalPerimeter;outlineConnect=0;targetShapes=umlLifeline;portConstraint=eastwest;newEdgeStyle={&quot;curved&quot;:0,&quot;rounded&quot;:0};" parent="pGpuBXrGM3ruBwRcqTSD-18" vertex="1">
          <mxGeometry x="15" y="200" width="10" height="80" as="geometry" />
        </mxCell>
        <mxCell id="pGpuBXrGM3ruBwRcqTSD-25" value="&lt;font style=&quot;font-size: 8px;&quot;&gt;verificarInterdisciplinar()&lt;/font&gt;" style="text;html=1;align=center;verticalAlign=middle;resizable=0;points=[];autosize=1;strokeColor=none;fillColor=none;" parent="1" vertex="1">
          <mxGeometry x="705" y="250" width="110" height="30" as="geometry" />
        </mxCell>
        <mxCell id="pGpuBXrGM3ruBwRcqTSD-26" value="&lt;font style=&quot;font-size: 8px;&quot;&gt;interdisciplinar()&lt;/font&gt;" style="html=1;verticalAlign=bottom;endArrow=open;dashed=1;endSize=8;curved=0;rounded=0;" parent="1" edge="1">
          <mxGeometry x="0.2472" y="-5" relative="1" as="geometry">
            <mxPoint x="846.5" y="310.00000000000006" as="sourcePoint" />
            <mxPoint x="691.75" y="310" as="targetPoint" />
            <mxPoint as="offset" />
          </mxGeometry>
        </mxCell>
        <mxCell id="pGpuBXrGM3ruBwRcqTSD-29" value="&lt;font style=&quot;font-size: 8px;&quot;&gt;criarInterdisciplicar()&lt;/font&gt;" style="text;html=1;align=center;verticalAlign=middle;resizable=0;points=[];autosize=1;strokeColor=none;fillColor=none;" parent="1" vertex="1">
          <mxGeometry x="550" y="350" width="100" height="30" as="geometry" />
        </mxCell>
        <mxCell id="pGpuBXrGM3ruBwRcqTSD-32" style="edgeStyle=orthogonalEdgeStyle;rounded=0;orthogonalLoop=1;jettySize=auto;html=1;curved=0;dashed=1;" parent="1" edge="1">
          <mxGeometry relative="1" as="geometry">
            <mxPoint x="694.69" y="480" as="sourcePoint" />
            <mxPoint x="540.0003448275861" y="480" as="targetPoint" />
          </mxGeometry>
        </mxCell>
        <mxCell id="pGpuBXrGM3ruBwRcqTSD-33" value="&lt;font style=&quot;font-size: 8px;&quot;&gt;exibirMensagemSucesso()&lt;/font&gt;" style="text;html=1;align=center;verticalAlign=middle;resizable=0;points=[];autosize=1;strokeColor=none;fillColor=none;" parent="1" vertex="1">
          <mxGeometry x="535" y="458" width="120" height="30" as="geometry" />
        </mxCell>
        <mxCell id="pGpuBXrGM3ruBwRcqTSD-34" value="&lt;span style=&quot;font-size: 8px;&quot;&gt;[caso for criada com sucesso]&lt;/span&gt;" style="text;html=1;align=center;verticalAlign=middle;resizable=0;points=[];autosize=1;strokeColor=none;fillColor=none;" parent="1" vertex="1">
          <mxGeometry x="535" y="470" width="130" height="30" as="geometry" />
        </mxCell>
        <mxCell id="pGpuBXrGM3ruBwRcqTSD-35" value="&lt;span style=&quot;font-size: 8px;&quot;&gt;[verifica se é ou não]&lt;/span&gt;" style="text;html=1;align=center;verticalAlign=middle;resizable=0;points=[];autosize=1;strokeColor=none;fillColor=none;" parent="1" vertex="1">
          <mxGeometry x="705" y="310" width="100" height="30" as="geometry" />
        </mxCell>
        <mxCell id="pGpuBXrGM3ruBwRcqTSD-39" style="edgeStyle=orthogonalEdgeStyle;rounded=0;orthogonalLoop=1;jettySize=auto;html=1;curved=0;dashed=1;" parent="1" edge="1">
          <mxGeometry relative="1" as="geometry">
            <mxPoint x="385" y="500" as="sourcePoint" />
            <mxPoint x="230.31034482758605" y="500" as="targetPoint" />
          </mxGeometry>
        </mxCell>
        <mxCell id="pGpuBXrGM3ruBwRcqTSD-40" style="edgeStyle=orthogonalEdgeStyle;rounded=0;orthogonalLoop=1;jettySize=auto;html=1;curved=0;dashed=1;" parent="1" edge="1">
          <mxGeometry relative="1" as="geometry">
            <mxPoint x="214.69" y="530" as="sourcePoint" />
            <mxPoint x="60.00034482758605" y="530" as="targetPoint" />
          </mxGeometry>
        </mxCell>
        <mxCell id="fX3zAuhtyyEibnqR22WL-1" value="Controle criação de aula" style="shape=umlLifeline;perimeter=lifelinePerimeter;whiteSpace=wrap;html=1;container=1;dropTarget=0;collapsible=0;recursiveResize=0;outlineConnect=0;portConstraint=eastwest;newEdgeStyle={&quot;curved&quot;:0,&quot;rounded&quot;:0};participant=umlControl;" vertex="1" parent="1">
          <mxGeometry x="670" y="40" width="40" height="510" as="geometry" />
        </mxCell>
        <mxCell id="pGpuBXrGM3ruBwRcqTSD-19" value="" style="html=1;points=[[0,0,0,0,5],[0,1,0,0,-5],[1,0,0,0,5],[1,1,0,0,-5]];perimeter=orthogonalPerimeter;outlineConnect=0;targetShapes=umlLifeline;portConstraint=eastwest;newEdgeStyle={&quot;curved&quot;:0,&quot;rounded&quot;:0};" parent="fX3zAuhtyyEibnqR22WL-1" vertex="1">
          <mxGeometry x="15" y="218" width="10" height="80" as="geometry" />
        </mxCell>
        <mxCell id="fX3zAuhtyyEibnqR22WL-5" value="" style="html=1;points=[[0,0,0,0,5],[0,1,0,0,-5],[1,0,0,0,5],[1,1,0,0,-5]];perimeter=orthogonalPerimeter;outlineConnect=0;targetShapes=umlLifeline;portConstraint=eastwest;newEdgeStyle={&quot;curved&quot;:0,&quot;rounded&quot;:0};" vertex="1" parent="fX3zAuhtyyEibnqR22WL-1">
          <mxGeometry x="15" y="380" width="10" height="40" as="geometry" />
        </mxCell>
        <mxCell id="fX3zAuhtyyEibnqR22WL-6" value="&lt;font style=&quot;font-size: 8px;&quot;&gt;salvarAula()&lt;/font&gt;" style="html=1;align=left;spacingLeft=2;endArrow=block;rounded=0;edgeStyle=orthogonalEdgeStyle;curved=0;rounded=0;" edge="1" target="fX3zAuhtyyEibnqR22WL-5" parent="fX3zAuhtyyEibnqR22WL-1">
          <mxGeometry relative="1" as="geometry">
            <mxPoint x="20" y="360" as="sourcePoint" />
            <Array as="points">
              <mxPoint x="50" y="390" />
            </Array>
          </mxGeometry>
        </mxCell>
        <mxCell id="fX3zAuhtyyEibnqR22WL-4" value="&lt;span style=&quot;font-size: 8px;&quot;&gt;[se não houver]&lt;/span&gt;" style="text;html=1;align=center;verticalAlign=middle;resizable=0;points=[];autosize=1;strokeColor=none;fillColor=none;" vertex="1" parent="1">
          <mxGeometry x="560" y="360" width="80" height="30" as="geometry" />
        </mxCell>
        <mxCell id="fX3zAuhtyyEibnqR22WL-9" style="edgeStyle=orthogonalEdgeStyle;rounded=0;orthogonalLoop=1;jettySize=auto;html=1;curved=0;dashed=1;" edge="1" parent="1">
          <mxGeometry relative="1" as="geometry">
            <mxPoint x="535" y="484.66" as="sourcePoint" />
            <mxPoint x="380.31034482758605" y="484.66" as="targetPoint" />
          </mxGeometry>
        </mxCell>
      </root>
    </mxGraphModel>
  </diagram>
</mxfile>
